<svg xmlns="http://www.w3.org/2000/svg"  viewBox="0 0 24 24" width="48px" height="48px"><path d="M12,7h-1c0-0.155,0-1,0-1s-0.809,1.538-1,2C9.72,8.677,8.241,9.817,7.23,7.591	C7.068,7.235,6.713,7,6.321,7H0.77C0.152,7-0.168,7.744,0.265,8.184c1.507,1.531,3.129,4.118,2.994,6.293	c-0.013,0.212,0.093,0.527,0.298,0.527C9,15,9,15,11.123,18.904c0,0,0.539,0.773,0.778,0.973C11.923,19.895,12,19.958,12,19.93	C12,16,12,7,12,7z" opacity=".35"/><path d="M12,7h1c0-0.155,0-1,0-1s0.809,1.538,1,2c0.28,0.677,1.759,1.817,2.77-0.409C16.932,7.235,17.287,7,17.679,7h5.551	c0.617,0,0.938,0.744,0.505,1.184c-1.507,1.531-3.129,4.118-2.994,6.293c0.013,0.212-0.093,0.527-0.298,0.527	C15,15,15,15,12.877,18.904c0,0-0.539,0.773-0.778,0.973C12.077,19.895,12,19.958,12,19.93C12,16,12,7,12,7z"/></svg>